<svg width="163.378906" height="42.776001" viewBox="0 0 163.379 42.776" fill="none" xmlns="http://www.w3.org/2000/svg" xmlns:xlink="http://www.w3.org/1999/xlink">
	<desc>
			Created with Pixso.
	</desc>
	<defs/>
	<path d="M34.79 42.77L7.97 42.77C3.57 42.77 0 39.2 0 34.79L0 7.97C0 3.57 3.57 0 7.97 0L34.79 0C39.2 0 42.77 3.57 42.77 7.97L42.77 34.79C42.77 39.2 39.2 42.77 34.79 42.77Z" fill="#292F36" fill-opacity="1.000000" fill-rule="nonzero"/>
	<path d="M29.09 21.78C29.85 22.73 30.24 23.85 30.24 25.11C30.24 26.96 29.62 28.41 28.39 29.44C27.15 30.47 25.38 31 23.08 31L13.03 31L13.03 9.39L22.84 9.39C25.04 9.39 26.74 9.87 27.94 10.83C29.14 11.79 29.74 13.16 29.74 14.92C29.74 16.23 29.39 17.31 28.7 18.18C28.01 19.05 27.1 19.61 25.98 19.88C27.3 20.19 28.33 20.82 29.09 21.78ZM18.25 18.23L21.68 18.23C23.5 18.23 24.4 17.45 24.4 15.9C24.4 14.35 23.47 13.58 21.62 13.58L18.25 13.58L18.25 18.23ZM24.89 24.38C24.89 23.6 24.63 23 24.12 22.56C23.62 22.13 22.89 21.91 21.96 21.91L18.26 21.91L18.26 26.76L21.99 26.76C23.92 26.75 24.89 25.97 24.89 24.38Z" fill="#FFFFFF" fill-opacity="1.000000" fill-rule="nonzero"/>
	<path d="M62.88 22.84L67.55 31L67.55 31.01L73.33 31.01L68.2 22.52C69.85 22.1 71.1 21.35 71.97 20.25C72.83 19.15 73.27 17.82 73.27 16.24C73.27 14.91 72.98 13.74 72.39 12.71C71.79 11.68 70.91 10.87 69.72 10.27C68.55 9.68 67.09 9.39 65.39 9.39L56.46 9.39L56.46 31L61.69 31L61.69 22.84L62.88 22.84ZM132.69 31L127.46 31L118.72 17.73L118.72 31L113.49 31L113.49 9.39L118.72 9.39L127.46 22.78L127.46 9.39L132.69 9.39L132.69 31ZM158.11 29.63C159.8 28.71 161.11 27.43 162.02 25.8C162.91 24.15 163.37 22.27 163.37 20.17C163.37 18.04 162.92 16.17 162.02 14.54C161.11 12.9 159.81 11.64 158.12 10.75C156.44 9.85 154.43 9.4 152.1 9.4L143.94 9.4L143.94 31.01L152.1 31.01C154.4 31.01 156.4 30.55 158.11 29.63ZM88.83 27.07L96.93 27.07L98.28 31.01L103.84 31.01L95.92 9.56L89.91 9.56L81.99 31.01L87.48 31.01L88.83 27.07ZM64.93 19.27L61.69 19.27L61.69 13.79L64.93 13.79C65.94 13.79 66.71 14.04 67.2 14.52C67.7 15.02 67.95 15.69 67.95 16.55C67.95 17.44 67.7 18.12 67.22 18.58C66.73 19.04 65.97 19.27 64.93 19.27ZM158.08 20.15C158.08 22.1 157.51 23.63 156.39 24.71C155.26 25.8 153.67 26.33 151.63 26.33L149.16 26.33L149.16 13.98L151.63 13.98C153.67 13.98 155.26 14.52 156.39 15.6C157.51 16.68 158.08 18.19 158.08 20.15ZM92.9 15.14L95.58 23.08L90.17 23.08L92.9 15.14Z" fill="#292F36" fill-opacity="1.000000" fill-rule="evenodd"/>
</svg>
